<svg width="56" height="56" viewBox="0 0 56 56" fill="none" xmlns="http://www.w3.org/2000/svg">
<path d="M51.6736 41.8945C51.7383 41.819 51.7883 41.732 51.8213 41.6381C54.2626 37.4187 55.5473 32.6298 55.5455 27.755C55.5437 22.8801 54.2554 18.0921 51.8109 13.8745C51.785 13.8109 51.7511 13.7507 51.7102 13.6955C50.1408 11.0259 48.1365 8.63728 45.78 6.62813C45.6981 6.55775 45.6031 6.50423 45.5004 6.47066C45.3978 6.43709 45.2895 6.42412 45.1818 6.4325C45.0741 6.44088 44.9692 6.47044 44.8729 6.51948C44.7767 6.56853 44.6911 6.63609 44.621 6.7183C44.551 6.80051 44.4979 6.89575 44.4647 6.99854C44.4316 7.10133 44.419 7.20966 44.4279 7.3173C44.4367 7.42495 44.4667 7.5298 44.5161 7.62582C44.5655 7.72185 44.6335 7.80717 44.7159 7.87689C46.5813 9.46906 48.214 11.3152 49.5661 13.3613H41.4984C40.6372 9.8638 39.237 6.52164 37.3481 3.4547C38.7327 3.99952 40.0679 4.66227 41.3391 5.43564C41.5249 5.54877 41.7481 5.58343 41.9595 5.53201C42.171 5.48058 42.3533 5.34727 42.4664 5.16142C42.5795 4.97556 42.6142 4.75237 42.5628 4.54095C42.5114 4.32953 42.3781 4.1472 42.1922 4.03407C40.0777 2.74781 37.8 1.75155 35.4202 1.07204C35.3986 1.06501 35.3775 1.05798 35.3555 1.05282C30.4452 -0.343094 25.2442 -0.351045 20.3297 1.02985C20.2174 1.03716 20.1078 1.06748 20.0077 1.11892C13.2144 3.11442 7.4312 7.61289 3.82548 13.7063C3.80408 13.7375 3.78497 13.7702 3.76829 13.8042C3.35719 14.5074 2.97141 15.2302 2.62173 15.9755C2.57593 16.073 2.54978 16.1786 2.54479 16.2862C2.53979 16.3938 2.55603 16.5013 2.5926 16.6027C2.62916 16.704 2.68532 16.7971 2.75788 16.8767C2.83044 16.9564 2.91797 17.0209 3.01548 17.0667C3.11298 17.1125 3.21856 17.1387 3.32617 17.1437C3.43378 17.1487 3.54132 17.1324 3.64265 17.0959C3.74398 17.0593 3.83712 17.0031 3.91675 16.9306C3.99637 16.858 4.06093 16.7705 4.10673 16.673C4.37485 16.1024 4.66219 15.5447 4.96876 15H13.6467C13.3022 16.5141 13.02 18.0834 12.803 19.6875H6.09235C5.87483 19.6876 5.66625 19.7741 5.51244 19.9279C5.35863 20.0817 5.27216 20.2903 5.27204 20.5078V26.9531H1.65376C1.66407 26.6067 1.68001 26.2608 1.70391 25.9191C1.70925 25.7079 1.63292 25.5028 1.49083 25.3465C1.34873 25.1902 1.15182 25.0948 0.941107 25.08C0.73039 25.0653 0.522108 25.1324 0.359637 25.2674C0.197165 25.4024 0.0930287 25.5948 0.0689139 25.8047C0.0220389 26.4544 7.50191e-06 27.1172 7.50191e-06 27.7734C-0.00358289 32.6429 1.28165 37.4266 3.72516 41.6386C3.75808 41.7325 3.80815 41.8194 3.87282 41.895C7.47784 47.9768 13.2582 52.4624 20.0447 54.4444C20.1164 54.4764 20.1923 54.498 20.2702 54.5086C25.176 55.8927 30.369 55.8927 35.2748 54.5086C35.3567 54.4983 35.4365 54.4757 35.5116 54.4416C42.2938 52.4578 48.0702 47.9731 51.6736 41.8945ZM28.5924 53.8852V42.1875H39.8016C38.5828 46.6453 36.8292 50.3494 34.6964 52.9688C32.7053 53.5154 30.6562 53.8227 28.5924 53.8852ZM20.8477 52.9674C18.7149 50.3489 16.9613 46.6453 15.7425 42.1861H26.9517V53.8842C24.8879 53.8219 22.8388 53.5138 20.8477 52.9674ZM41.0845 35.8594C40.86 37.4677 40.5689 39.037 40.2117 40.5469H28.5924V35.8594H41.0845ZM49.4503 35.8594C49.5581 35.8595 49.6649 35.8384 49.7646 35.7972C49.8643 35.7561 49.9548 35.6957 50.0311 35.6195C50.1074 35.5433 50.168 35.4528 50.2093 35.3532C50.2507 35.2537 50.272 35.1469 50.272 35.0391V28.5938H53.8842C53.7577 32.7886 52.6157 36.8902 50.5561 40.5469H41.8974C42.2419 39.0328 42.5241 37.4634 42.7411 35.8594H49.4503ZM37.3566 52.0781C39.2398 49.0154 40.6362 45.6787 41.4956 42.1875H49.553C46.5913 46.6495 42.3368 50.0998 37.3594 52.0763L37.3566 52.0781ZM53.8814 26.9531H50.272V20.5078C50.2719 20.2903 50.1855 20.0817 50.0316 19.9279C49.8778 19.7741 49.6692 19.6876 49.4517 19.6875H42.7416C42.5241 18.083 42.2419 16.5141 41.8978 15H50.5627C52.6142 18.6595 53.7527 22.7598 53.8814 26.9531ZM40.2131 15C40.5689 16.5094 40.8609 18.0792 41.0859 19.6875H28.5924V15H40.2131ZM39.8016 13.3594H28.5924V1.6547C30.6538 1.71899 32.7005 2.02659 34.6899 2.5711C36.8259 5.19001 38.5819 8.89688 39.8016 13.3594ZM26.9517 1.65563V13.3594H15.7425C16.9589 8.90626 18.7097 5.20876 20.8383 2.59079C22.8315 2.03626 24.8839 1.72231 26.9517 1.65563ZM18.1744 3.48376C16.2969 6.54292 14.9042 9.87422 14.0456 13.3594H5.97516C8.94314 8.9045 13.1987 5.46031 18.1744 3.4861V3.48376ZM15.3309 15H26.9517V19.6875H14.4595C14.6827 18.0792 14.9752 16.5099 15.3309 15ZM6.91266 21.3281H48.6314V34.2188H23.6316C23.414 34.2188 23.2054 34.3052 23.0515 34.459C22.8977 34.6129 22.8113 34.8215 22.8113 35.0391C22.8113 35.2566 22.8977 35.4653 23.0515 35.6191C23.2054 35.773 23.414 35.8594 23.6316 35.8594H26.9517V40.5469H15.3309C14.9752 39.037 14.6831 37.4677 14.4581 35.8594H18.1613C18.3788 35.8594 18.5875 35.773 18.7413 35.6191C18.8951 35.4653 18.9816 35.2566 18.9816 35.0391C18.9816 34.8215 18.8951 34.6129 18.7413 34.459C18.5875 34.3052 18.3788 34.2188 18.1613 34.2188H6.91126L6.91266 21.3281ZM6.09235 35.8594H12.8025C13.02 37.4639 13.3022 39.0328 13.6463 40.5469H4.9861C2.92654 36.8902 1.78452 32.7886 1.65798 28.5938H5.27204V35.0391C5.27216 35.2566 5.35863 35.4652 5.51244 35.619C5.66625 35.7728 5.87483 35.8593 6.09235 35.8594ZM5.98829 42.1875H14.0456C14.9051 45.6787 16.3012 49.0153 18.1842 52.0781C13.2059 50.1014 8.9505 46.6504 5.98829 42.1875ZM1.28766 22.672C1.39282 22.6958 1.50163 22.6986 1.60786 22.6802C1.71409 22.6618 1.81564 22.6226 1.90668 22.5649C1.99771 22.5071 2.07644 22.4319 2.13833 22.3437C2.20023 22.2554 2.24407 22.1557 2.26735 22.0505C2.42907 21.3263 2.62407 20.6016 2.84673 19.8966C2.87914 19.7938 2.89099 19.6857 2.88162 19.5784C2.87225 19.4711 2.84183 19.3667 2.79209 19.2711C2.74236 19.1755 2.6743 19.0907 2.59178 19.0214C2.50927 18.9522 2.41392 18.8998 2.31118 18.8674C2.20844 18.835 2.10032 18.8232 1.993 18.8325C1.88568 18.8419 1.78126 18.8723 1.68569 18.9221C1.59013 18.9718 1.5053 19.0399 1.43604 19.1224C1.36678 19.2049 1.31445 19.3002 1.28204 19.403C1.04766 20.153 0.838132 20.9227 0.666101 21.6928C0.618725 21.9051 0.657588 22.1275 0.774145 22.3111C0.890703 22.4947 1.07541 22.6246 1.28766 22.672Z" fill="url(#paint0_linear_1289_25)"/>
<path d="M19.4795 23.8906V31H17.7705L15.2559 26.5762V31H13.542V23.8906H15.2559L17.7705 28.3145V23.8906H19.4795ZM26.2561 29.6816V31H22.467V29.6816H26.2561ZM23.0773 23.8906V31H21.3635V23.8906H23.0773ZM25.7678 26.7129V27.9873H22.467V26.7129H25.7678ZM26.2707 23.8906V25.2139H22.467V23.8906H26.2707ZM29.3998 30.3555L30.8158 23.8906H31.6605L32.1195 24.4424L30.6107 31H29.6781L29.3998 30.3555ZM29.0238 23.8906L30.2201 30.4043L29.9125 31H28.8334L27.3246 23.8906H29.0238ZM32.8959 30.3701L34.0824 23.8906H35.7768L34.268 31H33.1938L32.8959 30.3701ZM32.2709 23.8906L33.7211 30.3945L33.4281 31H32.4955L30.9525 24.4326L31.4311 23.8906H32.2709ZM40.9127 29.1104C40.9127 28.9997 40.8964 28.9004 40.8639 28.8125C40.8313 28.7214 40.7711 28.6367 40.6832 28.5586C40.5953 28.4805 40.4684 28.4023 40.3023 28.3242C40.1396 28.2428 39.9247 28.1582 39.6578 28.0703C39.3453 27.9661 39.0442 27.849 38.7545 27.7188C38.4648 27.5853 38.206 27.4307 37.9781 27.2549C37.7503 27.0758 37.5696 26.8675 37.4361 26.6299C37.3027 26.389 37.2359 26.109 37.2359 25.79C37.2359 25.484 37.3043 25.209 37.441 24.9648C37.5777 24.7174 37.7682 24.5075 38.0123 24.335C38.2597 24.1592 38.5494 24.0257 38.8814 23.9346C39.2135 23.8402 39.5764 23.793 39.9703 23.793C40.4911 23.793 40.9501 23.8841 41.3473 24.0664C41.7477 24.2454 42.0602 24.501 42.2848 24.833C42.5126 25.1618 42.6266 25.5508 42.6266 26H40.9225C40.9225 25.821 40.885 25.6631 40.8102 25.5264C40.7385 25.3896 40.6295 25.2822 40.483 25.2041C40.3365 25.126 40.1526 25.0869 39.9312 25.0869C39.7164 25.0869 39.5357 25.1195 39.3893 25.1846C39.2428 25.2497 39.1321 25.3376 39.0572 25.4482C38.9824 25.5557 38.9449 25.6745 38.9449 25.8047C38.9449 25.9121 38.9742 26.0098 39.0328 26.0977C39.0947 26.1823 39.1809 26.262 39.2916 26.3369C39.4055 26.4118 39.5423 26.4834 39.7018 26.5518C39.8645 26.6201 40.0468 26.6868 40.2486 26.752C40.6262 26.8724 40.9615 27.0075 41.2545 27.1572C41.5507 27.3037 41.7997 27.4714 42.0016 27.6602C42.2066 27.8457 42.3613 28.0573 42.4654 28.2949C42.5729 28.5326 42.6266 28.8011 42.6266 29.1006C42.6266 29.4196 42.5647 29.7028 42.441 29.9502C42.3173 30.1976 42.1399 30.4076 41.9088 30.5801C41.6777 30.7493 41.401 30.8779 41.0787 30.9658C40.7564 31.0537 40.3967 31.0977 39.9996 31.0977C39.635 31.0977 39.2753 31.0521 38.9205 30.9609C38.5689 30.8665 38.2499 30.7233 37.9635 30.5312C37.677 30.3359 37.4475 30.0869 37.275 29.7842C37.1057 29.4782 37.0211 29.1152 37.0211 28.6953H38.7398C38.7398 28.9036 38.7675 29.0794 38.8229 29.2227C38.8782 29.3659 38.9596 29.4814 39.067 29.5693C39.1744 29.654 39.3062 29.7158 39.4625 29.7549C39.6187 29.7907 39.7978 29.8086 39.9996 29.8086C40.2177 29.8086 40.3935 29.7777 40.527 29.7158C40.6604 29.6507 40.7581 29.5661 40.8199 29.4619C40.8818 29.3545 40.9127 29.2373 40.9127 29.1104Z" fill="url(#paint1_linear_1289_25)"/>
<defs>
<linearGradient id="paint0_linear_1289_25" x1="47.4038" y1="47.392" x2="8.15063" y2="8.13892" gradientUnits="userSpaceOnUse">
<stop stop-color="#20A2D7"/>
<stop offset="0.604167" stop-color="#3B5CD0"/>
</linearGradient>
<linearGradient id="paint1_linear_1289_25" x1="38.6027" y1="32.2383" x2="32.7545" y2="17.6175" gradientUnits="userSpaceOnUse">
<stop stop-color="#20A2D7"/>
<stop offset="0.604167" stop-color="#3B5CD0"/>
</linearGradient>
</defs>
</svg>
